<svg width="154" height="160" viewBox="0 0 154 160" fill="none" xmlns="http://www.w3.org/2000/svg">
<path d="M34.9625 55.9433L29.1252 59.7793L89.9172 152.65L95.7545 148.814L34.9625 55.9433Z" fill="#E6E6E6"/>
<path d="M21.0656 20.9937L34.5711 41.6257C34.8327 42.0253 34.9251 42.5125 34.828 42.9804C34.731 43.4482 34.4525 43.8582 34.0537 44.1203C33.655 44.3823 33.1686 44.4749 32.7017 44.3777C32.2348 44.2805 31.8256 44.0014 31.564 43.6018L16.0378 19.8828C13.9303 19.7065 11.812 20.055 9.87157 20.8975L26.7881 46.7404C27.0495 47.1399 27.1417 47.6271 27.0447 48.0948C26.9476 48.5625 26.6691 48.9725 26.2704 49.2345C25.8717 49.4965 25.3855 49.5891 24.9187 49.4919C24.4518 49.3948 24.0426 49.1159 23.781 48.7165L6.86449 22.8736C5.32016 24.3212 4.15708 26.129 3.47882 28.136L19.0051 51.8551C19.2664 52.2546 19.3587 52.7418 19.2616 53.2095C19.1645 53.6772 18.886 54.0871 18.4874 54.3491C18.0887 54.6111 17.6025 54.7038 17.1356 54.6066C16.6688 54.5095 16.2596 54.2306 15.998 53.8312L2.49245 33.1991C2.14557 38.9519 4.01752 45.7703 8.12007 52.0377C15.7448 63.6858 28.1823 69.017 35.9 63.9453C43.6176 58.8736 43.6929 45.3195 36.0682 33.6714C31.9657 27.404 26.4699 22.967 21.0656 20.9937Z" fill="#E6E6E6"/>
<path d="M61.1346 43.2384H54.1538V154.302H61.1346V43.2384Z" fill="#E6E6E6"/>
<path d="M57.5384 50.4448C66.768 50.4448 74.25 39.1523 74.25 25.2224C74.25 11.2924 66.768 0 57.5384 0C48.3089 0 40.8269 11.2924 40.8269 25.2224C40.8269 39.1523 48.3089 50.4448 57.5384 50.4448Z" fill="#E6E6E6"/>
<path d="M57.5385 45.975C65.1324 45.975 71.2885 36.6837 71.2885 25.2224C71.2885 13.761 65.1324 4.46979 57.5385 4.46979C49.9445 4.46979 43.7885 13.761 43.7885 25.2224C43.7885 36.6837 49.9445 45.975 57.5385 45.975Z" fill="#CCCCCC"/>
<path d="M77 160C119.526 160 154 158.018 154 155.573C154 153.129 119.526 151.147 77 151.147C34.4741 151.147 0 153.129 0 155.573C0 158.018 34.4741 160 77 160Z" fill="#E6E6E6"/>
<path d="M122.537 155.508C93.6808 150.297 64.1267 150.297 35.2702 155.508C34.8118 155.592 34.3408 155.573 33.8904 155.454C33.4399 155.335 33.0211 155.118 32.6634 154.819C32.3056 154.52 32.0178 154.146 31.8201 153.723C31.6224 153.301 31.5197 152.84 31.5192 152.373V112.759H126.288V152.373C126.288 152.84 126.185 153.301 125.987 153.723C125.79 154.146 125.502 154.52 125.144 154.819C124.786 155.118 124.368 155.335 123.917 155.454C123.467 155.573 122.996 155.592 122.537 155.508V155.508Z" fill="#FF4646"/>
<path d="M117.615 83.5094C115.427 83.5074 113.254 83.8718 111.186 84.5874C108.169 78.0312 103.348 72.4731 97.2893 68.5656C91.2306 64.658 84.1851 62.563 76.9798 62.5266C69.7745 62.4901 62.7082 64.5136 56.6104 68.3596C50.5125 72.2056 45.636 77.7146 42.5532 84.24C39.5176 83.3868 36.3218 83.277 33.2351 83.9199C30.1483 84.5629 27.2609 85.9397 24.8162 87.9344C22.3714 89.9291 20.441 92.4833 19.1873 95.3817C17.9337 98.2802 17.3937 101.438 17.6127 104.589C17.8318 107.741 18.8035 110.793 20.4459 113.49C22.0884 116.186 24.3536 118.447 27.0507 120.083C29.7478 121.719 32.7977 122.682 35.9437 122.89C39.0896 123.098 42.2394 122.545 45.1276 121.279C48.5991 126.579 53.3406 130.923 58.919 133.915C64.4975 136.906 70.7351 138.45 77.0621 138.404C83.3892 138.359 89.604 136.725 95.1389 133.654C100.674 130.582 105.352 126.17 108.747 120.82C111.4 122.162 114.321 122.884 117.292 122.933C120.263 122.982 123.206 122.355 125.901 121.102C128.595 119.848 130.972 117.999 132.851 115.693C134.731 113.387 136.065 110.685 136.753 107.789C137.442 104.893 137.466 101.879 136.826 98.9716C136.185 96.0647 134.895 93.3409 133.054 91.0046C131.212 88.6683 128.867 86.7803 126.193 85.4822C123.519 84.1841 120.587 83.5096 117.615 83.5094V83.5094Z" fill="#FF4646"/>
<path d="M39.1346 100.466H38.7115C38.6971 94.8219 39.9437 89.2465 42.36 84.1483L42.7423 84.3299C40.353 89.3713 39.1203 94.8847 39.1346 100.466V100.466Z" fill="#3F3D56"/>
<path d="M114.865 100.466H114.442C114.455 95.0133 113.279 89.624 110.995 84.6749L111.38 84.4973C113.689 89.502 114.879 94.9519 114.865 100.466V100.466Z" fill="#3F3D56"/>
<path d="M31.5703 131.193L31.4683 130.781C31.5877 130.751 43.6113 127.793 61.2318 126.324C77.495 124.97 101.992 124.643 126.34 130.781L126.237 131.192C101.949 125.069 77.5049 125.394 61.2758 126.746C43.6868 128.211 31.6894 131.163 31.5703 131.193Z" fill="#3F3D56"/>
<path d="M31.5703 136.915L31.4683 136.504C31.5877 136.474 43.6113 133.515 61.2318 132.047C77.495 130.692 101.992 130.365 126.34 136.504L126.237 136.915C101.949 130.792 77.5049 131.118 61.2758 132.469C43.6868 133.934 31.6894 136.886 31.5703 136.915Z" fill="#3F3D56"/>
<path d="M31.5703 142.638L31.4683 142.227C31.5877 142.197 43.6113 139.238 61.2318 137.77C77.495 136.415 101.992 136.088 126.34 142.227L126.237 142.638C101.949 136.515 77.5049 136.84 61.2758 138.192C43.6868 139.657 31.6894 142.608 31.5703 142.638Z" fill="#3F3D56"/>
<path d="M15.5722 130.781C15.8062 130.781 15.996 130.686 15.996 130.568C15.996 130.451 15.8062 130.356 15.5722 130.356C15.3381 130.356 15.1483 130.451 15.1483 130.568C15.1483 130.686 15.3381 130.781 15.5722 130.781Z" fill="#E6E6E6"/>
<path d="M14.5716 131.282C14.8056 131.282 14.9954 131.187 14.9954 131.07C14.9954 130.952 14.8056 130.857 14.5716 130.857C14.3375 130.857 14.1477 130.952 14.1477 131.07C14.1477 131.187 14.3375 131.282 14.5716 131.282Z" fill="#E6E6E6"/>
</svg>
